<mxfile host="app.diagrams.net" modified="2020-07-24T19:21:20.413Z" agent="5.0 (X11)" etag="XpMbfFLDeuwzkjA5JQWw" version="13.5.3" type="github">
  <diagram name="Page-1" id="822b0af5-4adb-64df-f703-e8dfc1f81529">
    <mxGraphModel dx="1479" dy="1450" grid="1" gridSize="10" guides="1" tooltips="1" connect="1" arrows="1" fold="1" page="1" pageScale="1" pageWidth="1100" pageHeight="850" background="#ffffff" math="0" shadow="0">
      <root>
        <mxCell id="0" />
        <mxCell id="1" parent="0" />
        <mxCell id="evjiqw-rRKzWm4GHcbCl-8" value="" style="ellipse;shape=cloud;whiteSpace=wrap;html=1;" vertex="1" parent="1">
          <mxGeometry x="440" y="20" width="210" height="120" as="geometry" />
        </mxCell>
        <mxCell id="evjiqw-rRKzWm4GHcbCl-43" style="edgeStyle=orthogonalEdgeStyle;rounded=0;orthogonalLoop=1;jettySize=auto;html=1;entryX=0.5;entryY=1;entryDx=0;entryDy=0;entryPerimeter=0;" edge="1" parent="1" source="evjiqw-rRKzWm4GHcbCl-4" target="evjiqw-rRKzWm4GHcbCl-7">
          <mxGeometry relative="1" as="geometry" />
        </mxCell>
        <mxCell id="evjiqw-rRKzWm4GHcbCl-4" value="&lt;div&gt;Edgerouter&lt;/div&gt;" style="outlineConnect=0;fontColor=#232F3E;gradientColor=none;strokeColor=#232F3E;fillColor=#ffffff;dashed=0;verticalLabelPosition=bottom;verticalAlign=top;align=center;html=1;fontSize=12;fontStyle=0;aspect=fixed;shape=mxgraph.aws4.resourceIcon;resIcon=mxgraph.aws4.router;" vertex="1" parent="1">
          <mxGeometry x="500" y="300" width="100" height="100" as="geometry" />
        </mxCell>
        <mxCell id="evjiqw-rRKzWm4GHcbCl-44" style="edgeStyle=orthogonalEdgeStyle;rounded=0;orthogonalLoop=1;jettySize=auto;html=1;exitX=0.5;exitY=0;exitDx=0;exitDy=0;exitPerimeter=0;entryX=0.5;entryY=1;entryDx=0;entryDy=0;entryPerimeter=0;" edge="1" parent="1" source="evjiqw-rRKzWm4GHcbCl-5" target="evjiqw-rRKzWm4GHcbCl-6">
          <mxGeometry relative="1" as="geometry" />
        </mxCell>
        <mxCell id="evjiqw-rRKzWm4GHcbCl-5" value="Unmanaged Switch" style="points=[[0.015,0.015,0],[0.985,0.015,0],[0.985,0.985,0],[0.015,0.985,0],[0.25,0,0],[0.5,0,0],[0.75,0,0],[1,0.25,0],[1,0.5,0],[1,0.75,0],[0.75,1,0],[0.5,1,0],[0.25,1,0],[0,0.75,0],[0,0.5,0],[0,0.25,0]];verticalLabelPosition=bottom;html=1;verticalAlign=top;aspect=fixed;align=center;pointerEvents=1;shape=mxgraph.cisco19.rect;prIcon=l2_switch;fillColor=#FAFAFA;strokeColor=#005073;" vertex="1" parent="1">
          <mxGeometry x="762.18" y="710" width="75" height="75" as="geometry" />
        </mxCell>
        <mxCell id="evjiqw-rRKzWm4GHcbCl-42" style="edgeStyle=orthogonalEdgeStyle;rounded=0;orthogonalLoop=1;jettySize=auto;html=1;" edge="1" parent="1" source="evjiqw-rRKzWm4GHcbCl-6" target="evjiqw-rRKzWm4GHcbCl-4">
          <mxGeometry relative="1" as="geometry" />
        </mxCell>
        <mxCell id="evjiqw-rRKzWm4GHcbCl-6" value="Managed (L2/L3) Switch" style="points=[[0.015,0.015,0],[0.985,0.015,0],[0.985,0.985,0],[0.015,0.985,0],[0.25,0,0],[0.5,0,0],[0.75,0,0],[1,0.25,0],[1,0.5,0],[1,0.75,0],[0.75,1,0],[0.5,1,0],[0.25,1,0],[0,0.75,0],[0,0.5,0],[0,0.25,0]];verticalLabelPosition=bottom;html=1;verticalAlign=top;aspect=fixed;align=center;pointerEvents=1;shape=mxgraph.cisco19.rect;prIcon=l3_switch;fillColor=#FAFAFA;strokeColor=#005073;" vertex="1" parent="1">
          <mxGeometry x="513" y="470" width="75" height="75" as="geometry" />
        </mxCell>
        <mxCell id="evjiqw-rRKzWm4GHcbCl-7" value="Fiber ONT" style="verticalLabelPosition=bottom;shadow=0;dashed=0;align=center;html=1;verticalAlign=top;shape=mxgraph.electrical.transmission.optical_fiber;" vertex="1" parent="1">
          <mxGeometry x="485" y="160" width="130" height="80" as="geometry" />
        </mxCell>
        <mxCell id="evjiqw-rRKzWm4GHcbCl-11" value="" style="pointerEvents=1;shadow=0;dashed=0;html=1;strokeColor=none;fillColor=#505050;labelPosition=center;verticalLabelPosition=bottom;verticalAlign=top;outlineConnect=0;align=center;shape=mxgraph.office.devices.laptop;" vertex="1" parent="1">
          <mxGeometry x="961.18" y="1210" width="98.18" height="60" as="geometry" />
        </mxCell>
        <mxCell id="evjiqw-rRKzWm4GHcbCl-13" value="" style="shape=image;html=1;verticalAlign=top;verticalLabelPosition=bottom;labelBackgroundColor=#ffffff;imageAspect=0;aspect=fixed;image=https://cdn0.iconfinder.com/data/icons/heroicons-ui/24/icon-desktop-128.png" vertex="1" parent="1">
          <mxGeometry x="961.1800000000001" y="920" width="128" height="128" as="geometry" />
        </mxCell>
        <mxCell id="evjiqw-rRKzWm4GHcbCl-16" value="" style="shape=image;html=1;verticalAlign=top;verticalLabelPosition=bottom;labelBackgroundColor=#ffffff;imageAspect=0;aspect=fixed;image=https://cdn4.iconfinder.com/data/icons/user-interface-181/32/Smartphone-128.png" vertex="1" parent="1">
          <mxGeometry x="860" y="1100" width="88" height="88" as="geometry" />
        </mxCell>
        <mxCell id="evjiqw-rRKzWm4GHcbCl-47" style="edgeStyle=orthogonalEdgeStyle;rounded=0;orthogonalLoop=1;jettySize=auto;html=1;entryX=0.427;entryY=1;entryDx=0;entryDy=0;entryPerimeter=0;" edge="1" parent="1" source="evjiqw-rRKzWm4GHcbCl-17" target="evjiqw-rRKzWm4GHcbCl-20">
          <mxGeometry relative="1" as="geometry" />
        </mxCell>
        <mxCell id="evjiqw-rRKzWm4GHcbCl-17" value="&lt;div&gt;Wifi AP&lt;/div&gt;" style="points=[[0.03,0.36,0],[0.18,0,0],[0.5,0.34,0],[0.82,0,0],[0.97,0.36,0],[1,0.67,0],[0.975,0.975,0],[0.5,1,0],[0.025,0.975,0],[0,0.67,0]];verticalLabelPosition=bottom;html=1;verticalAlign=top;aspect=fixed;align=center;pointerEvents=1;shape=mxgraph.cisco19.wireless_access_point;fillColor=#005073;strokeColor=none;" vertex="1" parent="1">
          <mxGeometry x="561.0000000000001" y="818" width="90" height="90" as="geometry" />
        </mxCell>
        <mxCell id="evjiqw-rRKzWm4GHcbCl-18" value="" style="shape=image;html=1;verticalAlign=top;verticalLabelPosition=bottom;labelBackgroundColor=#ffffff;imageAspect=0;aspect=fixed;image=https://cdn4.iconfinder.com/data/icons/navigation-37/512/navigation_access_point_map_sign_world-32-128.png" vertex="1" parent="1">
          <mxGeometry x="511" y="50" width="78" height="78" as="geometry" />
        </mxCell>
        <mxCell id="evjiqw-rRKzWm4GHcbCl-45" style="edgeStyle=orthogonalEdgeStyle;rounded=0;orthogonalLoop=1;jettySize=auto;html=1;exitX=0.5;exitY=0;exitDx=0;exitDy=0;exitPerimeter=0;entryX=0.75;entryY=1;entryDx=0;entryDy=0;entryPerimeter=0;" edge="1" parent="1" source="evjiqw-rRKzWm4GHcbCl-19" target="evjiqw-rRKzWm4GHcbCl-6">
          <mxGeometry relative="1" as="geometry" />
        </mxCell>
        <mxCell id="evjiqw-rRKzWm4GHcbCl-19" value="Unmanaged Switch" style="points=[[0.015,0.015,0],[0.985,0.015,0],[0.985,0.985,0],[0.015,0.985,0],[0.25,0,0],[0.5,0,0],[0.75,0,0],[1,0.25,0],[1,0.5,0],[1,0.75,0],[0.75,1,0],[0.5,1,0],[0.25,1,0],[0,0.75,0],[0,0.5,0],[0,0.25,0]];verticalLabelPosition=bottom;html=1;verticalAlign=top;aspect=fixed;align=center;pointerEvents=1;shape=mxgraph.cisco19.rect;prIcon=l2_switch;fillColor=#FAFAFA;strokeColor=#005073;" vertex="1" parent="1">
          <mxGeometry x="1056.18" y="610" width="75" height="75" as="geometry" />
        </mxCell>
        <mxCell id="evjiqw-rRKzWm4GHcbCl-46" style="edgeStyle=orthogonalEdgeStyle;rounded=0;orthogonalLoop=1;jettySize=auto;html=1;entryX=0.25;entryY=1;entryDx=0;entryDy=0;entryPerimeter=0;" edge="1" parent="1" source="evjiqw-rRKzWm4GHcbCl-20" target="evjiqw-rRKzWm4GHcbCl-6">
          <mxGeometry relative="1" as="geometry" />
        </mxCell>
        <mxCell id="evjiqw-rRKzWm4GHcbCl-20" value="Unmanaged Switch" style="points=[[0.015,0.015,0],[0.985,0.015,0],[0.985,0.985,0],[0.015,0.985,0],[0.25,0,0],[0.5,0,0],[0.75,0,0],[1,0.25,0],[1,0.5,0],[1,0.75,0],[0.75,1,0],[0.5,1,0],[0.25,1,0],[0,0.75,0],[0,0.5,0],[0,0.25,0]];verticalLabelPosition=bottom;html=1;verticalAlign=top;aspect=fixed;align=center;pointerEvents=1;shape=mxgraph.cisco19.rect;prIcon=l2_switch;fillColor=#FAFAFA;strokeColor=#005073;" vertex="1" parent="1">
          <mxGeometry x="485.0000000000001" y="710" width="75" height="75" as="geometry" />
        </mxCell>
        <mxCell id="evjiqw-rRKzWm4GHcbCl-49" style="edgeStyle=orthogonalEdgeStyle;rounded=0;orthogonalLoop=1;jettySize=auto;html=1;entryX=0.5;entryY=1;entryDx=0;entryDy=0;entryPerimeter=0;" edge="1" parent="1" source="evjiqw-rRKzWm4GHcbCl-21" target="evjiqw-rRKzWm4GHcbCl-5">
          <mxGeometry relative="1" as="geometry" />
        </mxCell>
        <mxCell id="evjiqw-rRKzWm4GHcbCl-21" value="&lt;div&gt;Wifi AP&lt;/div&gt;" style="points=[[0.03,0.36,0],[0.18,0,0],[0.5,0.34,0],[0.82,0,0],[0.97,0.36,0],[1,0.67,0],[0.975,0.975,0],[0.5,1,0],[0.025,0.975,0],[0,0.67,0]];verticalLabelPosition=bottom;html=1;verticalAlign=top;aspect=fixed;align=center;pointerEvents=1;shape=mxgraph.cisco19.wireless_access_point;fillColor=#005073;strokeColor=none;" vertex="1" parent="1">
          <mxGeometry x="669" y="818" width="90" height="90" as="geometry" />
        </mxCell>
        <mxCell id="evjiqw-rRKzWm4GHcbCl-22" value="" style="shape=image;html=1;verticalAlign=top;verticalLabelPosition=bottom;labelBackgroundColor=#ffffff;imageAspect=0;aspect=fixed;image=https://cdn4.iconfinder.com/data/icons/user-interface-181/32/Smartphone-128.png" vertex="1" parent="1">
          <mxGeometry x="511" y="1100" width="88" height="88" as="geometry" />
        </mxCell>
        <mxCell id="evjiqw-rRKzWm4GHcbCl-23" value="" style="shape=image;html=1;verticalAlign=top;verticalLabelPosition=bottom;labelBackgroundColor=#ffffff;imageAspect=0;aspect=fixed;image=https://cdn4.iconfinder.com/data/icons/user-interface-181/32/Smartphone-128.png" vertex="1" parent="1">
          <mxGeometry x="651" y="1100" width="88" height="88" as="geometry" />
        </mxCell>
        <mxCell id="evjiqw-rRKzWm4GHcbCl-24" value="" style="shape=image;html=1;verticalAlign=top;verticalLabelPosition=bottom;labelBackgroundColor=#ffffff;imageAspect=0;aspect=fixed;image=https://cdn4.iconfinder.com/data/icons/user-interface-181/32/Smartphone-128.png" vertex="1" parent="1">
          <mxGeometry x="581" y="1100" width="88" height="88" as="geometry" />
        </mxCell>
        <mxCell id="evjiqw-rRKzWm4GHcbCl-25" value="" style="shape=image;html=1;verticalAlign=top;verticalLabelPosition=bottom;labelBackgroundColor=#ffffff;imageAspect=0;aspect=fixed;image=https://cdn4.iconfinder.com/data/icons/user-interface-181/32/Smartphone-128.png" vertex="1" parent="1">
          <mxGeometry x="790" y="1100" width="88" height="88" as="geometry" />
        </mxCell>
        <mxCell id="evjiqw-rRKzWm4GHcbCl-26" value="" style="shape=image;html=1;verticalAlign=top;verticalLabelPosition=bottom;labelBackgroundColor=#ffffff;imageAspect=0;aspect=fixed;image=https://cdn4.iconfinder.com/data/icons/user-interface-181/32/Smartphone-128.png" vertex="1" parent="1">
          <mxGeometry x="1000" y="1100" width="88" height="88" as="geometry" />
        </mxCell>
        <mxCell id="evjiqw-rRKzWm4GHcbCl-27" value="" style="shape=image;html=1;verticalAlign=top;verticalLabelPosition=bottom;labelBackgroundColor=#ffffff;imageAspect=0;aspect=fixed;image=https://cdn4.iconfinder.com/data/icons/user-interface-181/32/Smartphone-128.png" vertex="1" parent="1">
          <mxGeometry x="721" y="1100" width="88" height="88" as="geometry" />
        </mxCell>
        <mxCell id="evjiqw-rRKzWm4GHcbCl-28" value="" style="shape=image;html=1;verticalAlign=top;verticalLabelPosition=bottom;labelBackgroundColor=#ffffff;imageAspect=0;aspect=fixed;image=https://cdn4.iconfinder.com/data/icons/user-interface-181/32/Smartphone-128.png" vertex="1" parent="1">
          <mxGeometry x="930" y="1100" width="88" height="88" as="geometry" />
        </mxCell>
        <mxCell id="evjiqw-rRKzWm4GHcbCl-29" value="" style="pointerEvents=1;shadow=0;dashed=0;html=1;strokeColor=none;fillColor=#505050;labelPosition=center;verticalLabelPosition=bottom;verticalAlign=top;outlineConnect=0;align=center;shape=mxgraph.office.devices.laptop;" vertex="1" parent="1">
          <mxGeometry x="850" y="1210" width="98.18" height="60" as="geometry" />
        </mxCell>
        <mxCell id="evjiqw-rRKzWm4GHcbCl-30" value="" style="pointerEvents=1;shadow=0;dashed=0;html=1;strokeColor=none;fillColor=#505050;labelPosition=center;verticalLabelPosition=bottom;verticalAlign=top;outlineConnect=0;align=center;shape=mxgraph.office.devices.laptop;" vertex="1" parent="1">
          <mxGeometry x="739" y="1210" width="98.18" height="60" as="geometry" />
        </mxCell>
        <mxCell id="evjiqw-rRKzWm4GHcbCl-31" value="" style="pointerEvents=1;shadow=0;dashed=0;html=1;strokeColor=none;fillColor=#505050;labelPosition=center;verticalLabelPosition=bottom;verticalAlign=top;outlineConnect=0;align=center;shape=mxgraph.office.devices.laptop;" vertex="1" parent="1">
          <mxGeometry x="630" y="1212" width="98.18" height="60" as="geometry" />
        </mxCell>
        <mxCell id="evjiqw-rRKzWm4GHcbCl-32" value="" style="pointerEvents=1;shadow=0;dashed=0;html=1;strokeColor=none;fillColor=#505050;labelPosition=center;verticalLabelPosition=bottom;verticalAlign=top;outlineConnect=0;align=center;shape=mxgraph.office.devices.laptop;" vertex="1" parent="1">
          <mxGeometry x="520" y="1212" width="98.18" height="60" as="geometry" />
        </mxCell>
        <mxCell id="evjiqw-rRKzWm4GHcbCl-33" value="" style="pointerEvents=1;shadow=0;dashed=0;html=1;strokeColor=none;fillColor=#505050;labelPosition=center;verticalLabelPosition=bottom;verticalAlign=top;outlineConnect=0;align=center;shape=mxgraph.office.devices.laptop;" vertex="1" parent="1">
          <mxGeometry x="1070.18" y="1210" width="98.18" height="60" as="geometry" />
        </mxCell>
        <mxCell id="evjiqw-rRKzWm4GHcbCl-34" value="" style="pointerEvents=1;shadow=0;dashed=0;html=1;strokeColor=none;fillColor=#505050;labelPosition=center;verticalLabelPosition=bottom;verticalAlign=top;outlineConnect=0;align=center;shape=mxgraph.office.devices.laptop;" vertex="1" parent="1">
          <mxGeometry x="1174.0000000000002" y="1210" width="98.18" height="60" as="geometry" />
        </mxCell>
        <mxCell id="evjiqw-rRKzWm4GHcbCl-35" value="" style="shape=image;html=1;verticalAlign=top;verticalLabelPosition=bottom;labelBackgroundColor=#ffffff;imageAspect=0;aspect=fixed;image=https://cdn0.iconfinder.com/data/icons/heroicons-ui/24/icon-desktop-128.png" vertex="1" parent="1">
          <mxGeometry x="1220" y="920" width="128" height="128" as="geometry" />
        </mxCell>
        <mxCell id="evjiqw-rRKzWm4GHcbCl-36" value="" style="shape=image;html=1;verticalAlign=top;verticalLabelPosition=bottom;labelBackgroundColor=#ffffff;imageAspect=0;aspect=fixed;image=https://cdn0.iconfinder.com/data/icons/heroicons-ui/24/icon-desktop-128.png" vertex="1" parent="1">
          <mxGeometry x="520" y="1290" width="128" height="128" as="geometry" />
        </mxCell>
        <mxCell id="evjiqw-rRKzWm4GHcbCl-37" value="" style="shape=image;html=1;verticalAlign=top;verticalLabelPosition=bottom;labelBackgroundColor=#ffffff;imageAspect=0;aspect=fixed;image=https://cdn0.iconfinder.com/data/icons/heroicons-ui/24/icon-desktop-128.png" vertex="1" parent="1">
          <mxGeometry x="1092" y="920" width="128" height="128" as="geometry" />
        </mxCell>
        <mxCell id="evjiqw-rRKzWm4GHcbCl-38" value="" style="outlineConnect=0;fontColor=#232F3E;gradientColor=none;fillColor=#232F3E;strokeColor=none;dashed=0;verticalLabelPosition=bottom;verticalAlign=top;align=center;html=1;fontSize=12;fontStyle=0;aspect=fixed;pointerEvents=1;shape=mxgraph.aws4.traditional_server;" vertex="1" parent="1">
          <mxGeometry x="1151.1799999999998" y="760" width="85.38" height="148" as="geometry" />
        </mxCell>
        <mxCell id="evjiqw-rRKzWm4GHcbCl-39" value="" style="outlineConnect=0;fontColor=#232F3E;gradientColor=none;fillColor=#232F3E;strokeColor=none;dashed=0;verticalLabelPosition=bottom;verticalAlign=top;align=center;html=1;fontSize=12;fontStyle=0;aspect=fixed;pointerEvents=1;shape=mxgraph.aws4.traditional_server;" vertex="1" parent="1">
          <mxGeometry x="1056.1799999999998" y="760" width="85.38" height="148" as="geometry" />
        </mxCell>
        <mxCell id="evjiqw-rRKzWm4GHcbCl-40" value="" style="outlineConnect=0;fontColor=#232F3E;gradientColor=none;fillColor=#232F3E;strokeColor=none;dashed=0;verticalLabelPosition=bottom;verticalAlign=top;align=center;html=1;fontSize=12;fontStyle=0;aspect=fixed;pointerEvents=1;shape=mxgraph.aws4.traditional_server;" vertex="1" parent="1">
          <mxGeometry x="961.18" y="760" width="85.38" height="148" as="geometry" />
        </mxCell>
      </root>
    </mxGraphModel>
  </diagram>
</mxfile>
